:FULLY-SPECIFIED
:FORCE-ALL-JOINTS-BE-3DOF
:DEGREES
2956
root -6.02311 13.1493 -28.7656 162.421 -67.1769 -159.427
lfemur -67.7835 43.5559 -6.57612
ltibia 77.7752 -0 0
lfoot -7.81622 -2.9171 0.00602317
ltoes -38.8396 0 0
rfemur -34.1266 -17.8665 22.714
rtibia 90.6723 -0 0
rfoot -40.6205 -30.149 0.00318037
rtoes -13.7795 0 0
lowerback 16.2453 5.30653 1.38445
upperback -4.44758 7.63458 1.46755
thorax -14.158 3.4769 -1.27678
lowerneck -2.91337 9.46253 1.6646
upperneck 8.29446 12.3902 1.67666
head 3.17891 6.23607 0.7269
lclavicle 1.13257e-14 1.01877e-14 -5.0238e-32
lhumerus 5.79698 14.462 82.9187
lradius 90.742 -0 0
lwrist -18.2942 0 0
lhand -38.8692 28.7015 0.0053968
lfingers 7.12502 -0 0
lthumb -11.8774 58.3388 0.0057454
rclavicle 1.13257e-14 1.01877e-14 -5.0238e-32
rhumerus -57.2492 51.0824 -110.319
rradius 112.797 -0 0
rwrist -81.9524 0 0
rhand 7.10738 -25.4286 0.0174084
rfingers 7.12502 -0 0
rthumb 32.3754 -52.5304 0.0241749
2957
root -5.99791 13.1718 -28.7968 162.06 -67.6248 -159.004
lfemur -67.7239 43.1264 -6.6525
ltibia 77.276 -0 0
lfoot -7.78381 -2.73368 0.0104034
ltoes -38.7163 0 0
rfemur -34.1504 -17.6682 22.8509
rtibia 90.4446 -0 0
rfoot -40.4678 -30.1284 0.0054931
rtoes -13.743 0 0
lowerback 16.2385 5.28739 1.37882
upperback -4.41886 7.60501 1.45756
thorax -14.1205 3.46419 -1.2752
lowerneck -2.88036 9.3281 1.57336
upperneck 8.17636 12.2141 1.70137
head 3.13603 6.14835 0.747814
lclavicle 1.12036e-14 9.77914e-15 -8.67673e-32
lhumerus 5.91597 14.2701 82.9143
lradius 90.6414 -0 0
lwrist -18.0786 0 0
lhand -38.7305 28.74 0.00932126
lfingers 7.12502 -0 0
lthumb -11.7435 58.3813 0.00992334
rclavicle 1.12036e-14 9.77914e-15 -8.67673e-32
rhumerus -56.0006 50.9908 -109.388
rradius 112.696 -0 0
rwrist -81.6983 0 0
rhand 6.84981 -25.4949 0.03007
rfingers 7.12502 -0 0
rthumb 32.1285 -52.6264 0.0417577
2958
root -5.96637 13.2 -28.8359 161.587 -68.1838 -158.454
lfemur -67.6488 42.589 -6.74821
ltibia 76.6511 -0 0
lfoot -7.74323 -2.50412 0.0157391
ltoes -38.562 0 0
rfemur -34.1794 -17.42 23.0219
rtibia 90.1595 -0 0
rfoot -40.2768 -30.1026 0.00831027
rtoes -13.6972 0 0
lowerback 16.23 5.26344 1.37178
upperback -4.3829 7.568 1.44504
thorax -14.0734 3.44828 -1.27322
lowerneck -2.83877 9.15993 1.45911
upperneck 8.02856 11.9937 1.7328
head 3.08233 6.03858 0.774078
lclavicle 1.10508e-14 9.26776e-15 -1.3126e-31
lhumerus 6.06476 14.0298 82.9081
lradius 90.5156 -0 0
lwrist -17.8087 0 0
lhand -38.5569 28.7882 0.0141016
lfingers 7.12502 -0 0
lthumb -11.5759 58.4345 0.0150125
rclavicle 1.10508e-14 9.26776e-15 -1.3126e-31
rhumerus -54.4453 50.8584 -108.231
rradius 112.568 -0 0
rwrist -81.3802 0 0
rhand 6.52744 -25.5779 0.045496
rfingers 7.12502 -0 0
rthumb 31.8195 -52.7466 0.0631796
2959
root -5.92889 13.2335 -28.8823 160.988 -68.8462 -157.764
lfemur -67.5588 41.95 -6.86219
ltibia 75.9082 -0 0
lfoot -7.69495 -2.23121 0.0218707
ltoes -38.3785 0 0
rfemur -34.2128 -17.1248 23.2248
rtibia 89.8207 -0 0
rfoot -40.0497 -30.072 0.0115474
rtoes -13.6429 0 0
lowerback 16.2199 5.23496 1.36342
upperback -4.34016 7.52401 1.43012
thorax -14.0176 3.42937 -1.27089
lowerneck -2.7889 8.96011 1.32319
upperneck 7.85285 11.7319 1.77089
head 3.01843 5.90812 0.805428
lclavicle 1.08691e-14 8.65982e-15 -1.8238e-31
lhumerus 6.24148 13.7443 82.8999
lradius 90.366 -0 0
lwrist -17.4879 0 0
lhand -38.3506 28.8455 0.0195946
lfingers 7.12502 -0 0
lthumb -11.3767 58.4977 0.0208602
rclavicle 1.08691e-14 8.65982e-15 -1.8238e-31
rhumerus -52.6085 50.6752 -106.868
rradius 112.417 -0 0
rwrist -81.0019 0 0
rhand 6.14397 -25.6768 0.0632357
rfingers 7.12502 -0 0
rthumb 31.4518 -52.8898 0.0878143
2960
root -5.88583 13.272 -28.9356 160.251 -69.6035 -156.921
lfemur -67.4543 41.2164 -6.99335
ltibia 75.055 -0 0
lfoot -7.63947 -1.91774 0.0286295
ltoes -38.1678 0 0
rfemur -34.2498 -16.7855 23.4571
rtibia 89.4313 -0 0
rfoot -39.7889 -30.0367 0.0151155
rtoes -13.5804 0 0
lowerback 16.2083 5.20225 1.35382
upperback -4.29104 7.4735 1.41294
thorax -13.9534 3.40765 -1.26824
lowerneck -2.73106 8.73074 1.16696
upperneck 7.65092 11.4312 1.81563
head 2.94496 5.75832 0.841609
lclavicle 1.06604e-14 7.96155e-15 -2.38716e-31
lhumerus 6.44435 13.4161 82.8894
lradius 90.1942 -0 0
lwrist -17.1193 0 0
lhand -38.1135 28.9114 0.0256489
lfingers 7.12502 -0 0
lthumb -11.1479 58.5703 0.0273054
rclavicle 1.06604e-14 7.96155e-15 -2.38716e-31
rhumerus -50.5174 50.4311 -105.322
rradius 112.244 -0 0
rwrist -80.5674 0 0
rhand 5.70363 -25.7904 0.082788
rfingers 7.12502 -0 0
rthumb 31.0296 -53.0545 0.114966
2961
root -5.83759 13.3151 -28.9953 159.352 -70.4472 -155.905
lfemur -67.3361 40.3946 -7.14069
ltibia 74.099 -0 0
lfoot -7.57724 -1.56636 0.0358447
ltoes -37.9317 0 0
rfemur -34.2895 -16.4053 23.7167
rtibia 88.9951 -0 0
rfoot -39.4966 -29.9972 0.0189225
rtoes -13.5104 0 0
lowerback 16.1954 5.1656 1.34307
upperback -4.23601 7.41692 1.39365
thorax -13.8814 3.3833 -1.2653
lowerneck -2.66555 8.47394 0.991735
upperneck 7.42471 11.0945 1.86696
head 2.86256 5.59053 0.882365
lclavicle 1.04265e-14 7.17917e-15 -2.98817e-31
lhumerus 6.67133 13.0487 82.8762
lradius 90.0017 -0 0
lwrist -16.7063 0 0
lhand -37.8479 28.9852 0.0321086
lfingers 7.12502 -0 0
lthumb -10.8915 58.6518 0.0341822
rclavicle 1.04265e-14 7.17917e-15 -2.98817e-31
rhumerus -48.2013 50.1154 -103.617
rradius 112.049 -0 0
rwrist -80.0807 0 0
rhand 5.21021 -25.9179 0.103657
rfingers 7.12502 -0 0
rthumb 30.5564 -53.2391 0.143946
2962
root -5.78455 13.3626 -29.061 158.265 -71.3681 -154.689
lfemur -67.2045 39.4912 -7.30319
ltibia 73.0478 -0 0
lfoot -7.50878 -1.18012 0.0433351
ltoes -37.6721 0 0
rfemur -34.3309 -15.987 24.0012
rtibia 88.5155 -0 0
rfoot -39.1752 -29.9537 0.0228757
rtoes -13.4335 0 0
lowerback 16.1811 5.12529 1.33126
upperback -4.17548 7.35473 1.37237
thorax -13.8023 3.35653 -1.26209
lowerneck -2.59265 8.1918 0.798864
upperneck 7.17592 10.7246 1.9249
head 2.77185 5.40611 0.927444
lclavicle 1.01694e-14 6.31891e-15 -3.61215e-31
lhumerus 6.92061 12.6447 82.86
lradius 89.79 -0 0
lwrist -16.2523 0 0
lhand -37.5559 29.0664 0.0388162
lfingers 7.12502 -0 0
lthumb -10.6096 58.7413 0.0413229
rclavicle 1.01694e-14 6.31891e-15 -3.61215e-31
rhumerus -45.6914 49.7182 -101.781
rradius 111.836 -0 0
rwrist -79.5456 0 0
rhand 4.66762 -26.0584 0.125334
rfingers 7.12502 -0 0
rthumb 30.036 -53.4425 0.174048
2963
root -5.7271 13.4139 -29.1321 156.954 -72.3565 -153.239
lfemur -67.0602 38.513 -7.4799
ltibia 71.9091 -0 0
lfoot -7.43457 -0.7617 0.0509283
ltoes -37.3909 0 0
rfemur -34.3733 -15.5337 24.3084
rtibia 87.996 -0 0
rfoot -38.8271 -29.9066 0.026883
rtoes -13.3502 0 0
lowerback 16.1657 5.08163 1.31848
upperback -4.10989 7.28738 1.34926
thorax -13.7167 3.32752 -1.25867
lowerneck -2.51261 7.88629 0.589565
upperneck 6.90632 10.3241 1.98943
head 2.67344 5.20641 0.976593
lclavicle 9.89093e-15 5.38701e-15 -4.24453e-31
lhumerus 7.19036 12.2071 82.8405
lradius 89.5607 -0 0
lwrist -15.7605 0 0
lhand -37.2395 29.1544 0.0456154
lfingers 7.12502 -0 0
lthumb -10.3042 58.8384 0.0485609
rclavicle 9.89093e-15 5.38701e-15 -4.24453e-31
rhumerus -43.0204 49.2305 -99.8424
rradius 111.604 -0 0
rwrist -78.9657 0 0
rhand 4.07963 -26.2107 0.14732
rfingers 7.12502 -0 0
rthumb 29.472 -53.6631 0.20458
2964
root -5.66562 13.4689 -29.2083 155.37 -73.4018 -151.507
lfemur -66.9037 37.4665 -7.66986
ltibia 70.6904 -0 0
lfoot -7.35508 -0.3139 0.0584539
ltoes -37.09 0 0
rfemur -34.4157 -15.0482 24.6362
rtibia 87.4399 -0 0
rfoot -38.4543 -29.8561 0.0308561
rtoes -13.261 0 0
lowerback 16.1492 5.0349 1.30482
upperback -4.03967 7.21534 1.32443
thorax -13.625 3.29646 -1.25505
lowerneck -2.42581 7.55979 0.365357
upperneck 6.61767 9.89587 2.06051
head 2.56798 4.99278 1.02956
lclavicle 9.59286e-15 4.3897e-15 -4.87112e-31
lhumerus 7.47878 11.7388 82.8173
lradius 89.3153 -0 0
lwrist -15.2342 0 0
lhand -36.9009 29.2486 0.0523535
lfingers 7.12502 -0 0
lthumb -9.97736 58.9423 0.0557339
rclavicle 9.59286e-15 4.3897e-15 -4.87112e-31
rhumerus -40.2217 48.6447 -97.8301
rradius 111.356 -0 0
rwrist -78.3452 0 0
rhand 3.45044 -26.374 0.169112
rfingers 7.12502 -0 0
rthumb 28.8685 -53.8995 0.234842
